<?xml version="1.0" standalone="no"?>
<!DOCTYPE svg PUBLIC "-//W3C//DTD SVG 20010904//EN"
 "http://www.w3.org/TR/2001/REC-SVG-20010904/DTD/svg10.dtd">
<svg version="1.0" xmlns="http://www.w3.org/2000/svg"
 width="300.000000pt" height="300.000000pt" viewBox="0 0 300.000000 300.000000"
 preserveAspectRatio="xMidYMid meet">
<metadata>
Created by potrace 1.14, written by Peter Selinger 2001-2017
</metadata>
<g transform="translate(0.000000,300.000000) scale(0.100000,-0.100000)"
fill="#000000" stroke="none">
<path d="M1445 2956 c-17 -7 -46 -30 -65 -50 -58 -61 -138 -71 -212 -26 -71
43 -162 17 -205 -59 -54 -95 -97 -123 -173 -114 -135 17 -196 -24 -214 -140
-13 -85 -61 -133 -142 -142 -109 -14 -166 -92 -142 -198 17 -79 -16 -135 -113
-190 -81 -46 -101 -124 -55 -214 41 -82 30 -152 -33 -206 -48 -40 -61 -81 -52
-165 0 -7 21 -34 45 -60 75 -80 82 -125 37 -221 -24 -52 -27 -67 -20 -99 5
-20 9 -40 9 -43 0 -15 59 -66 95 -82 59 -26 89 -76 87 -140 -5 -110 -3 -127
16 -159 26 -41 66 -65 120 -71 82 -10 137 -63 147 -142 8 -57 33 -102 71 -126
34 -21 48 -22 175 -17 51 3 99 -33 133 -98 33 -63 64 -86 126 -92 36 -3 58 2
98 22 83 42 147 31 209 -37 44 -47 76 -57 161 -48 7 0 34 21 60 45 78 73 129
83 212 41 91 -46 172 -26 217 54 53 93 109 129 178 114 116 -23 196 29 209
136 10 85 64 138 148 148 104 12 160 91 136 196 -17 79 16 135 113 190 80 45
100 126 54 217 -39 78 -32 132 26 192 47 49 58 70 63 116 5 49 -19 102 -58
133 -31 24 -56 79 -56 121 0 16 11 51 25 78 49 96 24 180 -65 225 -82 41 -119
106 -102 182 24 105 -33 184 -141 197 -83 10 -129 57 -142 146 -9 57 -32 96
-73 122 -32 20 -100 26 -141 13 -31 -10 -94 12 -122 42 -14 16 -38 49 -52 74
-45 80 -126 100 -217 54 -83 -42 -144 -29 -214 44 -25 27 -48 41 -65 42 -14 0
-35 2 -46 4 -11 2 -34 -2 -50 -9z"/>
</g>
</svg>
